<?xml version="1.0" encoding="iso-8859-1"?>
<!-- Uploaded to: SVG Repo, www.svgrepo.com, Generator: SVG Repo Mixer Tools -->
<!DOCTYPE svg PUBLIC "-//W3C//DTD SVG 1.1//EN" "http://www.w3.org/Graphics/SVG/1.1/DTD/svg11.dtd">
<svg fill="#000000" version="1.1" id="Capa_1" xmlns="http://www.w3.org/2000/svg" xmlns:xlink="http://www.w3.org/1999/xlink" 
	 width="800px" height="800px" viewBox="0 0 39.731 39.731"
	 xml:space="preserve">
<g>
	<path d="M38.604,27.056c-0.036-0.18-0.1-0.34-0.18-0.488c0.039-0.032,0.076-0.066,0.113-0.104c1.006-1.012,1.434-3.493,1.062-4.742
		c-0.166-0.56-0.56-0.938-0.979-1.249c0.274-0.222,0.522-0.501,0.654-0.89c0.602-1.769,1.021-5.718-1.53-6.628
		c-1.176-0.42-3.012-0.625-5.609-0.625c-1.276,0-2.574,0.05-3.729,0.115c2.479-2.712,3.441-5.071,2.938-7.157
		c-0.722-2.969-4.146-3.805-4.291-3.839c-0.461-0.106-0.946,0.029-1.285,0.364L13.42,14.099l-2.808,0.093v-1.546
		c0-1.519-1.23-2.75-2.75-2.75H2.751C1.232,9.896,0,11.126,0,12.646v22.923c0,1.521,1.232,2.75,2.751,2.75h5.111
		c1.52,0,2.75-1.229,2.75-2.75v-1.556l4.354,0.124c1.371,0.301,12.113,2.625,17.329,2.625c0.452,0,0.864-0.02,1.227-0.055
		c0.8-0.077,2.595-0.702,3.32-1.668l0.066-0.09c0.755-1,0.852-1.454,0.562-2.7c-0.047-0.199-0.125-0.38-0.225-0.542
		c0.125-0.085,0.244-0.188,0.352-0.315C38.444,30.373,38.842,28.188,38.604,27.056z"/>
</g>
</svg>